<?xml version="1.0" encoding="utf-8"?>
<!-- Generator: Adobe Illustrator 23.0.6, SVG Export Plug-In . SVG Version: 6.00 Build 0)  -->
<svg version="1.1" id="Layer_1" xmlns="http://www.w3.org/2000/svg" xmlns:xlink="http://www.w3.org/1999/xlink" x="0px" y="0px"
	 viewBox="0 0 400.32 400.32" style="enable-background:new 0 0 400.32 400.32;" xml:space="preserve">
<style type="text/css">
	.st0{fill:#FEFEFE;}
	.st1{fill:#FE8E00;}
	.st2{fill:#5483EA;}
	.st3{fill:#92DB38;}
</style>
<g>
	<path class="st0" d="M119.21,195.02c0-28.36,0-56.72-0.02-85.08c0-0.9,0.2-1.1,1.1-1.1c54.24,0.03,108.48,0.03,162.72,0
		c0.9,0,1.1,0.2,1.1,1.1c-0.02,56.72-0.02,113.44,0,170.16c0,0.9-0.2,1.1-1.1,1.1c-54.24-0.03-108.48-0.03-162.72,0
		c-0.9,0-1.1-0.2-1.1-1.1C119.21,251.74,119.21,223.38,119.21,195.02z"/>
	<path class="st1" d="M176.31,162.47c2.83-2.14,5.71-4.18,8.95-5.68c4.96-2.29,10.12-3.63,15.59-3.81
		c12.91-0.44,23.66,4.21,32.22,13.78c5.24,5.85,8.37,12.77,9.51,20.57c1.64,11.27-0.97,21.5-7.81,30.56
		c-6.01,7.96-14,13.02-23.78,15.04c-12.66,2.62-24.09-0.26-34.12-8.33c-7.16-5.76-11.62-13.3-13.75-22.22
		c-0.93-3.91-1.23-7.89-0.92-11.87c0.64-8.37,3.57-15.89,8.82-22.48c1.4-1.75,3.03-3.28,4.57-4.89
		C175.67,162.73,175.91,162.52,176.31,162.47z"/>
	<path class="st2" d="M140.06,216.85c-2.16,0.05-4.28-0.11-6.33-0.93c-2.34-0.93-3.54-2.67-3.98-5.09
		c-0.47-2.58-0.22-5.08,0.58-7.56c0.34-1.06,0.68-2.13,0.96-3.21c0.33-1.31,0.31-2.57-0.48-3.79c-1.04-1.6-0.94-2.94,0.32-4.39
		c0.53-0.62,0.71-1.09,0.16-1.75c-2.41-2.92-2.06-5.8,0.23-8.56c0.84-1.01,0.83-1.79-0.06-2.75c-0.62-0.66-1.08-1.48-1.58-2.25
		c-1.28-1.96-0.98-3.9,0.27-5.72c1.47-2.15,3.33-3.98,5.09-5.9c1.89-2.06,3.69-4.24,5.76-6.11c2.42-2.19,2.75-4.7,2.16-7.7
		c-0.39-1.99-0.92-3.97-0.93-6.03c-0.01-0.65,0.18-1.15,0.58-1.63c10.16-12.33,22.93-20.57,38.42-24.56c4.59-1.19,9.25-1.91,14-2.18
		c19.05-1.07,36.05,4.43,51.23,15.84c5.04,3.79,9.38,8.31,13.41,13.14c0.49,0.59,0.08,0.74-0.27,1c-2.14,1.53-4.28,3.06-6.43,4.59
		c-4.29,3.05-8.6,6.08-12.86,9.17c-0.88,0.64-1.33,0.7-2.21-0.16c-7.89-7.76-17.32-12.47-28.34-13.82
		c-13.43-1.64-25.5,1.76-36.26,9.93c-0.32,0.24-0.68,0.44-0.85,0.83c-0.58,0.13-0.85-0.36-1.2-0.65c-2.99-2.49-6.3-4.38-10.13-5.23
		c-1.4-0.31-2.42,0.46-2.63,1.88c-0.19,1.27,0.19,1.89,1.46,2.17c2.19,0.49,4.35,1.04,6.43,1.91c0.85,0.36,1.68,0.76,2.47,1.22
		c0.37,0.21,0.82,0.38,0.84,0.92c-1.96,2.08-4.07,4.02-5.58,6.47c-0.38,0.41-0.82,0.17-1.23,0.08c-2.15-0.48-3.97-1.6-5.61-3.03
		c-0.15-0.13-0.28-0.28-0.43-0.41c-0.87-0.78-1.68-0.89-2.2-0.29c-0.49,0.56-0.24,1.39,0.67,2.13c1.82,1.47,3.83,2.55,6.13,3.09
		c0.38,0.09,0.93-0.01,1.03,0.59c-6.01,9.26-8.61,19.42-7.91,30.42c0.4,6.29,2.02,12.28,4.83,17.93c0.43,0.87,0.33,1.24-0.49,1.78
		c-3.01,1.95-5.96,3.99-8.93,6c-1.27,0.86-1.42,0.83-2.13-0.57c-1.12-2.21-2.26-4.4-4.4-5.83c0.4-0.42,0.88-0.28,1.35-0.2
		c1.1,0.2,2.21,0.32,3.32,0.47c0.49,0.07,0.96,0.07,1.41-0.15c0.61-0.3,1.09-0.72,1.04-1.47c-0.05-0.77-0.52-1.25-1.26-1.4
		c-1.21-0.26-2.45-0.4-3.67-0.56c-1.87-0.25-3.71-0.6-5.41-1.49c-1.77-0.93-2.18-1.68-1.98-3.66c0.17-1.73,0.91-3.31,1.3-4.98
		c0.48-2.03,0.56-4.04-0.46-5.95c-0.37-0.68-0.25-1.21,0.27-1.72c0.26-0.25,0.52-0.49,0.78-0.75c0.74-0.72,0.82-1.52,0.27-2.38
		c-0.63-0.98-1.23-1.97-1.83-2.96c-0.51-0.84-0.5-1.63-0.01-2.48c0.64-1.11,1.43-2.12,2-3.27c0.64-1.28,0.62-2.41-0.42-3.51
		c-0.8-0.84-1.46-1.8-2.07-2.79c-0.49-0.8-0.44-1.52,0.04-2.35c0.84-1.43,1.94-2.64,3.03-3.86c2.35-2.62,4.85-5.09,7.2-7.71
		c0.69-0.77,1.36-1.58,2.02-2.38c1.34-1.61,1.7-3.51,1.43-5.53c-0.26-1.9-0.35-3.83-0.82-5.69c-0.26-1.04,0.03-1.85,0.69-2.64
		c3.16-3.76,6.79-6.99,10.81-9.79c8.73-6.08,18.45-9.52,28.98-10.58c11.88-1.19,23.25,0.78,34.05,5.95
		c5.56,2.67,10.63,6.03,15.06,10.33c0.63,0.61,1.34,1.14,1.98,1.74c0.65,0.61,1.39,0.83,2.16,0.21c0.62-0.5,0.67-1.5,0.05-2.28
		c-0.88-1.09-1.89-2.07-2.94-2.99c-10.39-9.16-22.5-14.47-36.26-16.05c-3.46-0.4-6.94-0.61-10.41-0.42
		c-14.56,0.79-27.68,5.42-38.94,14.88c-2.64,2.22-5,4.71-7.27,7.3c-1.17,1.33-1.7,2.67-1.19,4.48c0.52,1.84,0.59,3.79,0.86,5.69
		c0.2,1.42-0.12,2.69-1.08,3.79c-0.97,1.12-1.89,2.28-2.93,3.33c-2.98,3.01-5.81,6.16-8.59,9.36c-2.13,2.45-2.23,4.62-0.42,7.3
		c0.45,0.66,0.94,1.3,1.43,1.92c0.46,0.58,0.48,1.13,0.07,1.75c-0.68,1.04-1.31,2.1-1.85,3.22c-0.63,1.28-0.69,2.52,0.08,3.77
		c0.21,0.34,0.37,0.71,0.6,1.04c0.79,1.18,1.16,2.25,0.03,3.55c-0.89,1.02-0.78,2.34-0.03,3.48c0.95,1.44,0.87,2.95,0.45,4.49
		c-0.4,1.46-0.93,2.89-1.28,4.37c-0.8,3.44,0.34,5.86,3.48,7.56C139.21,216.11,139.95,216.09,140.06,216.85z"/>
	<path class="st3" d="M235.81,228.41c1.97-2.07,4.06-4.02,5.59-6.47c0.38-0.41,0.82-0.17,1.23-0.08c2.15,0.48,3.97,1.6,5.61,3.03
		c0.15,0.13,0.28,0.28,0.43,0.41c0.87,0.78,1.68,0.88,2.2,0.28c0.48-0.56,0.24-1.39-0.68-2.13c-1.82-1.47-3.83-2.55-6.13-3.09
		c-0.38-0.09-0.93,0.01-1.03-0.59c9.66-15.66,10.7-31.85,2.97-48.57c-0.33-0.72-0.21-1.01,0.41-1.42c3.03-1.99,6.02-4.04,9.03-6.07
		c1.41-0.95,1.46-0.93,2.27,0.62c1.13,2.16,2.25,4.32,4.36,5.72c-0.4,0.42-0.88,0.28-1.35,0.2c-1.1-0.2-2.21-0.32-3.32-0.47
		c-0.49-0.07-0.96-0.07-1.41,0.15c-0.61,0.3-1.09,0.72-1.04,1.46c0.05,0.77,0.52,1.25,1.26,1.41c1.21,0.26,2.45,0.4,3.67,0.56
		c1.87,0.25,3.71,0.6,5.41,1.49c1.77,0.93,2.18,1.69,1.99,3.66c-0.17,1.73-0.91,3.31-1.3,4.98c-0.48,2.03-0.57,4.05,0.46,5.95
		c0.44,0.81,0.11,1.34-0.43,1.9c-1.62,1.63-1.63,1.84-0.37,3.76c0.26,0.4,0.46,0.85,0.76,1.22c1.3,1.56,1.08,3.04-0.13,4.54
		c-0.58,0.71-1.02,1.53-1.41,2.36c-0.55,1.17-0.48,2.21,0.44,3.2c0.81,0.88,1.52,1.86,2.15,2.88c0.49,0.8,0.45,1.52-0.04,2.35
		c-0.98,1.63-2.27,2.99-3.52,4.38c-2.7,3-5.58,5.83-8.21,8.89c-1.66,1.93-2.29,4.07-1.91,6.55c0.29,1.9,0.39,3.82,0.84,5.69
		c0.23,0.94-0.2,1.62-0.75,2.29c-3.14,3.77-6.78,6.99-10.81,9.8c-8.73,6.08-18.44,9.53-28.97,10.58
		c-11.92,1.2-23.31-0.82-34.16-5.99c-6.17-2.94-11.57-6.94-16.49-11.62c-1.13-1.07-2.01-1.26-2.69-0.55
		c-0.66,0.68-0.48,1.73,0.51,2.75c6.64,6.83,14.55,11.68,23.46,14.96c5.28,1.95,10.75,3.13,16.34,3.68
		c8.73,0.86,17.32,0.04,25.72-2.49c7.94-2.39,15.2-6.08,21.64-11.34c3.07-2.51,5.83-5.34,8.41-8.36c1.01-1.18,1.43-2.38,1.01-3.96
		c-0.52-1.93-0.63-3.94-0.9-5.92c-0.2-1.42,0.12-2.69,1.08-3.8c0.97-1.12,1.89-2.28,2.93-3.33c2.98-3.01,5.81-6.16,8.59-9.36
		c2.13-2.45,2.23-4.62,0.42-7.3c-0.43-0.63-0.88-1.24-1.36-1.83c-0.54-0.65-0.56-1.25-0.08-1.95c0.67-0.99,1.26-2.04,1.79-3.12
		c0.63-1.28,0.69-2.52-0.08-3.77c-0.21-0.34-0.38-0.71-0.6-1.04c-0.79-1.18-1.17-2.25-0.03-3.55c0.89-1.02,0.78-2.34,0.03-3.48
		c-0.95-1.44-0.87-2.95-0.45-4.49c0.4-1.46,0.93-2.89,1.28-4.37c0.8-3.45-0.34-5.86-3.48-7.56c-0.48-0.26-1.22-0.24-1.33-1
		c2.16-0.04,4.28,0.11,6.32,0.93c2.38,0.96,3.56,2.73,4,5.21c0.44,2.55,0.17,5-0.59,7.44c-0.34,1.07-0.68,2.13-0.96,3.21
		c-0.34,1.31-0.31,2.57,0.48,3.79c1.04,1.62,0.94,2.93-0.31,4.39c-0.52,0.61-0.72,1.07-0.17,1.74c2.4,2.91,2.09,5.8-0.23,8.55
		c-0.91,1.08-0.77,1.89,0.12,2.85c0.59,0.64,1.03,1.42,1.51,2.16c1.27,1.96,0.99,3.89-0.26,5.71c-1.47,2.15-3.33,3.98-5.08,5.9
		c-1.86,2.04-3.63,4.18-5.68,6.02c-2.5,2.24-2.87,4.81-2.23,7.9c0.4,1.94,0.9,3.89,0.92,5.91c0,0.65-0.17,1.15-0.57,1.64
		c-9.5,11.57-21.39,19.56-35.75,23.85c-5.46,1.63-11.04,2.6-16.75,2.91c-18.71,1.02-35.49-4.27-50.51-15.37
		c-5.27-3.89-9.81-8.54-14-13.56c-0.76-0.92,0.18-1.04,0.52-1.28c4.76-3.42,9.55-6.81,14.33-10.19c1.72-1.22,3.46-2.42,5.17-3.66
		c0.49-0.35,0.75-0.45,1.27,0.08c7.71,7.78,16.97,12.59,27.82,14.12c13.74,1.94,26.16-1.42,37.21-9.82
		c0.31-0.24,0.58-0.54,0.86-0.81c0.58-0.11,0.85,0.36,1.2,0.66c2.95,2.47,6.22,4.33,10,5.19c1.56,0.35,2.66-0.53,2.76-2.11
		c0.07-1.11-0.27-1.63-1.38-1.89c-1.28-0.3-2.56-0.62-3.83-0.98c-1.78-0.5-3.46-1.23-5.07-2.12
		C236.36,229.17,235.86,228.99,235.81,228.41z"/>
	<path d="M140.06,216.85c-1.49-0.7-2.92-1.46-4-2.77c-1.22-1.48-1.79-3.12-1.3-5.01c0.46-1.78,0.97-3.54,1.47-5.31
		c0.44-1.53,0.4-2.95-0.51-4.36c-0.94-1.45-0.78-2.76,0.42-4.18c0.52-0.6,0.74-1.06,0.17-1.74c-2.4-2.9-2.1-5.78,0.22-8.55
		c0.83-1,0.89-1.8-0.05-2.75c-0.55-0.56-0.95-1.28-1.4-1.94c-1.49-2.18-1.23-4.32,0.28-6.33c2.27-3,4.95-5.65,7.5-8.41
		c1.58-1.7,3.12-3.43,4.68-5.15c0.8-0.88,1.1-1.91,0.94-3.1c-0.3-2.3-0.51-4.61-1.06-6.86c-0.3-1.22,0.03-2.15,0.79-3.09
		c7.53-9.36,17.02-16.01,28.44-19.56c23.83-7.41,45.62-3.44,64.98,12.58c1.14,0.94,2.17,2.01,3.21,3.06
		c1.1,1.11,1.19,2.36,0.32,3.16c-0.84,0.77-1.96,0.62-3.05-0.49c-6.64-6.72-14.42-11.71-23.4-14.57
		c-20.97-6.66-40.55-3.93-58.41,9.26c-3.2,2.36-5.97,5.19-8.52,8.24c-0.42,0.51-0.58,0.97-0.42,1.63c0.52,2.06,0.65,4.18,0.95,6.27
		c0.35,2.43-0.46,4.49-2.09,6.26c-3.37,3.69-6.74,7.38-10.13,11.05c-0.77,0.83-1.2,1.88-1.91,2.75c-0.36,0.44-0.1,0.85,0.15,1.2
		c0.77,1.07,1.49,2.19,2.37,3.16c1.04,1.13,1.04,2.3,0.37,3.51c-0.69,1.26-1.48,2.47-2.25,3.68c-0.36,0.57-0.42,1.06-0.02,1.64
		c0.65,0.96,1.21,1.97,1.85,2.94c0.93,1.41,0.88,2.23-0.4,3.34c-0.79,0.68-1.22,1.19-0.55,2.35c0.9,1.57,0.8,3.39,0.43,5.15
		c-0.41,1.94-1.19,3.79-1.51,5.77c-0.18,1.15,0.19,1.86,0.99,2.48c1.37,1.07,3,1.46,4.66,1.75c1.57,0.28,3.16,0.48,4.74,0.71
		c1.41,0.21,2.21,1.02,2.08,2.14c-0.13,1.08-1.18,1.81-2.52,1.67c-1.67-0.18-3.32-0.42-4.99-0.63
		C142.44,217.51,141.25,217.18,140.06,216.85z"/>
	<path d="M265.64,171.03c1.49,0.7,2.92,1.46,4,2.77c1.22,1.48,1.78,3.12,1.29,5.02c-0.47,1.82-0.99,3.62-1.5,5.43
		c-0.4,1.45-0.37,2.8,0.49,4.13c0.98,1.53,0.86,2.84-0.38,4.28c-0.53,0.61-0.71,1.07-0.16,1.74c2.41,2.91,2.07,5.79-0.23,8.56
		c-0.84,1-0.85,1.81,0.06,2.75c0.55,0.57,0.95,1.28,1.4,1.94c1.44,2.13,1.24,4.25-0.24,6.23c-2.25,3.02-4.94,5.66-7.49,8.42
		c-1.52,1.64-3.01,3.32-4.54,4.95c-1.01,1.08-1.35,2.31-1.11,3.75c0.36,2.17,0.61,4.35,1.04,6.51c0.24,1.18-0.02,2.08-0.75,2.99
		c-6.11,7.65-13.7,13.39-22.6,17.39c-22.79,10.24-49.89,6.75-69.19-8.89c-1.71-1.39-3.32-2.88-4.86-4.46
		c-0.42-0.43-0.81-0.89-0.9-1.52c-0.1-0.73,0.08-1.35,0.69-1.81c0.6-0.45,1.27-0.49,1.92-0.15c0.35,0.18,0.67,0.44,0.95,0.71
		c9.72,9.74,21.45,15.52,35.04,17.37c17.18,2.34,32.87-1.47,46.79-12c3.14-2.37,5.91-5.14,8.45-8.15c0.48-0.57,0.68-1.09,0.49-1.84
		c-0.53-2.06-0.65-4.18-0.94-6.28c-0.33-2.38,0.49-4.41,2.08-6.15c3.34-3.66,6.68-7.33,10.05-10.97c0.8-0.86,1.26-1.94,1.99-2.84
		c0.35-0.44,0.12-0.85-0.14-1.2c-0.77-1.07-1.49-2.19-2.37-3.16c-1.03-1.13-1.06-2.29-0.39-3.51c0.67-1.23,1.44-2.4,2.2-3.58
		c0.41-0.63,0.5-1.19,0.03-1.86c-0.64-0.91-1.18-1.9-1.8-2.83c-0.94-1.41-0.88-2.23,0.39-3.34c0.77-0.67,1.24-1.18,0.56-2.35
		c-0.91-1.56-0.8-3.39-0.43-5.15c0.41-1.94,1.19-3.79,1.51-5.77c0.2-1.21-0.24-1.93-1.08-2.56c-1.35-1-2.95-1.4-4.57-1.68
		c-1.57-0.27-3.16-0.48-4.74-0.71c-1.41-0.21-2.21-1.02-2.07-2.14c0.13-1.08,1.19-1.81,2.52-1.67c1.67,0.18,3.32,0.42,4.99,0.63
		C263.27,170.38,264.45,170.7,265.64,171.03z"/>
	<path d="M169.88,159.47c-2.72-1.88-5.83-2.8-8.99-3.56c-0.23-0.06-0.47-0.07-0.7-0.13c-1.79-0.48-2.2-1.12-1.8-2.82
		c0.37-1.56,1.38-2.23,2.99-1.87c4.34,0.97,8,3.2,11.25,6.17c1.09,1.11,2.19,2.21,3.13,3.45c0.4,0.52,0.66,1.08,0.55,1.77
		c-0.24,0.22-0.47,0.44-0.71,0.66c-0.58,0.04-1.01-0.2-1.46-0.59C172.81,161.41,171.5,160.22,169.88,159.47z"/>
	<path d="M235.81,228.41c2.72,1.88,5.82,2.81,8.99,3.57c0.23,0.06,0.47,0.07,0.7,0.13c1.79,0.48,2.2,1.11,1.81,2.81
		c-0.36,1.57-1.38,2.23-2.98,1.88c-4.34-0.97-8-3.19-11.25-6.16c-1.19-1.18-2.38-2.37-3.34-3.74c-0.34-0.48-0.58-1.05-0.18-1.67
		c0.29-0.44,0.7-0.48,1.15-0.44c0.36,0.03,0.53,0.33,0.77,0.52C232.87,226.42,234.18,227.64,235.81,228.41z"/>
	<path d="M162.66,168.11c-2.77-0.62-5.33-1.68-7.51-3.55c-0.59-0.5-1.07-1.09-0.93-1.94c0.11-0.64,0.63-0.9,1.17-1.05
		c0.86-0.24,1.41,0.34,1.94,0.87c1.83,1.79,4,2.95,6.49,3.52c0.15,0.03,0.31-0.01,0.47-0.01c0.44,0.01,0.88,0.03,1.31,0.04
		c0.82,0.02,1.3,0.51,1.32,1.25c0.01,0.74-0.61,0.94-1.27,0.92C164.66,168.13,163.66,168.13,162.66,168.11z"/>
	<path d="M243.04,219.77c2.77,0.62,5.33,1.69,7.5,3.55c0.59,0.5,1.07,1.09,0.93,1.94c-0.11,0.64-0.63,0.9-1.17,1.05
		c-0.86,0.25-1.41-0.34-1.94-0.86c-1.83-1.79-3.99-2.95-6.48-3.52c-0.15-0.03-0.31,0.01-0.47,0.01c-0.52-0.01-1.04,0.02-1.55-0.05
		c-0.67-0.1-1.09-0.58-1.09-1.23c0-0.67,0.52-0.93,1.16-0.92C240.96,219.74,242,219.76,243.04,219.77z"/>
	<path d="M218.77,185.5c2.82,6.27,2.63,12.35-1.38,18.04c-3.72,5.29-8.95,7.65-15.4,7.36c-7.61-0.34-15.04-6.03-16.24-15.11
		c-1.3-9.9,5.45-17.94,14.12-19.51c2.99-0.54,5.93-0.32,8.84,0.52c0.32,0.28,0.24,0.64,0.2,1c-0.38,4.18,2.29,7.46,6.46,7.97
		c0.69,0.08,1.34-0.12,2.01-0.22C217.84,185.48,218.3,185.22,218.77,185.5z"/>
	<path class="st0" d="M218.77,185.5c-4.84,1.93-8.99-1.27-9.9-4.61c-0.37-1.37-0.46-2.71-0.16-4.08c0.95-2.44,2.45-4.32,5.09-5.08
		c3.56-1.02,7.42,0.77,8.81,4.1c1.46,3.48,0.14,7.42-3.11,9.29C219.27,185.25,219.02,185.37,218.77,185.5z"/>
</g>
</svg>
